<mxfile host="app.diagrams.net" modified="2022-05-23T09:42:29.819Z" agent="5.0 (Macintosh; Intel Mac OS X 10_15_7) AppleWebKit/605.1.15 (KHTML, like Gecko) Version/15.4 Safari/605.1.15" etag="BXds7tWlH5Smq2I4-scj" version="18.1.1" type="github">
  <diagram id="xEasYU6QwzubUcBzCQZL" name="Page-1">
    <mxGraphModel dx="1035" dy="683" grid="1" gridSize="10" guides="1" tooltips="1" connect="1" arrows="1" fold="1" page="1" pageScale="1" pageWidth="827" pageHeight="1169" math="0" shadow="0">
      <root>
        <mxCell id="0" />
        <mxCell id="1" parent="0" />
        <mxCell id="Rq6E8Ny1nlO-AVJrCtWL-9" value="XpressNet" style="edgeStyle=orthogonalEdgeStyle;rounded=0;orthogonalLoop=1;jettySize=auto;html=1;exitX=0.5;exitY=0;exitDx=0;exitDy=0;entryX=0.25;entryY=0;entryDx=0;entryDy=0;" parent="1" source="Rq6E8Ny1nlO-AVJrCtWL-1" target="Rq6E8Ny1nlO-AVJrCtWL-2" edge="1">
          <mxGeometry relative="1" as="geometry">
            <Array as="points">
              <mxPoint x="130" y="120" />
              <mxPoint x="270" y="120" />
            </Array>
          </mxGeometry>
        </mxCell>
        <mxCell id="Rq6E8Ny1nlO-AVJrCtWL-1" value="mXion" style="rounded=0;whiteSpace=wrap;html=1;" parent="1" vertex="1">
          <mxGeometry x="70" y="210" width="120" height="60" as="geometry" />
        </mxCell>
        <mxCell id="Rq6E8Ny1nlO-AVJrCtWL-2" value="RBM:Main-station&lt;br&gt;CV1: 1&lt;br&gt;315-318" style="rounded=0;whiteSpace=wrap;html=1;" parent="1" vertex="1">
          <mxGeometry x="240" y="210" width="120" height="60" as="geometry" />
        </mxCell>
        <mxCell id="Rq6E8Ny1nlO-AVJrCtWL-10" value="RBM:Driveway-station&lt;br&gt;CV1: 3&lt;br&gt;5-8" style="rounded=0;whiteSpace=wrap;html=1;" parent="1" vertex="1">
          <mxGeometry x="560" y="210" width="130" height="60" as="geometry" />
        </mxCell>
        <mxCell id="Rq6E8Ny1nlO-AVJrCtWL-11" value="XpressNet" style="edgeStyle=orthogonalEdgeStyle;rounded=0;orthogonalLoop=1;jettySize=auto;html=1;exitX=0.667;exitY=-0.033;exitDx=0;exitDy=0;entryX=0.358;entryY=-0.033;entryDx=0;entryDy=0;exitPerimeter=0;entryPerimeter=0;" parent="1" source="Rq6E8Ny1nlO-AVJrCtWL-2" target="Rq6E8Ny1nlO-AVJrCtWL-10" edge="1">
          <mxGeometry relative="1" as="geometry">
            <mxPoint x="320" y="150" as="sourcePoint" />
            <mxPoint x="460" y="150" as="targetPoint" />
            <Array as="points">
              <mxPoint x="320" y="120" />
              <mxPoint x="603" y="120" />
            </Array>
          </mxGeometry>
        </mxCell>
        <mxCell id="Rq6E8Ny1nlO-AVJrCtWL-12" value="RBM:Lake-station&lt;br&gt;CV1: 2&lt;br&gt;325-328" style="rounded=0;whiteSpace=wrap;html=1;" parent="1" vertex="1">
          <mxGeometry x="400" y="210" width="120" height="60" as="geometry" />
        </mxCell>
        <mxCell id="Rq6E8Ny1nlO-AVJrCtWL-13" value="" style="shape=mxgraph.arrows2.wedgeArrowDashed;html=1;bendable=0;rounded=0;" parent="1" edge="1">
          <mxGeometry width="100" height="100" relative="1" as="geometry">
            <mxPoint x="459.5" y="160" as="sourcePoint" />
            <mxPoint x="459.5" y="200" as="targetPoint" />
          </mxGeometry>
        </mxCell>
        <mxCell id="Rq6E8Ny1nlO-AVJrCtWL-14" value="" style="shape=mxgraph.arrows2.wedgeArrowDashed;html=1;bendable=0;rounded=0;" parent="1" edge="1">
          <mxGeometry width="100" height="100" relative="1" as="geometry">
            <mxPoint x="90" y="160" as="sourcePoint" />
            <mxPoint x="90" y="200" as="targetPoint" />
          </mxGeometry>
        </mxCell>
        <mxCell id="mQ066taRpHK4QYdw9s_f-1" value="BM:311-314" style="rounded=0;whiteSpace=wrap;html=1;" parent="1" vertex="1">
          <mxGeometry x="240" y="330" width="120" height="60" as="geometry" />
        </mxCell>
        <mxCell id="mQ066taRpHK4QYdw9s_f-2" value="BM:321-324" style="rounded=0;whiteSpace=wrap;html=1;" parent="1" vertex="1">
          <mxGeometry x="400" y="330" width="120" height="60" as="geometry" />
        </mxCell>
        <mxCell id="mQ066taRpHK4QYdw9s_f-3" value="BM:1-4" style="rounded=0;whiteSpace=wrap;html=1;" parent="1" vertex="1">
          <mxGeometry x="560" y="330" width="130" height="60" as="geometry" />
        </mxCell>
        <mxCell id="xtNYb5jNxqwyDTvApmOd-2" value="" style="shape=doubleArrow;whiteSpace=wrap;html=1;direction=south;" vertex="1" parent="1">
          <mxGeometry x="270" y="270" width="60" height="60" as="geometry" />
        </mxCell>
        <mxCell id="xtNYb5jNxqwyDTvApmOd-4" value="" style="shape=doubleArrow;whiteSpace=wrap;html=1;direction=south;" vertex="1" parent="1">
          <mxGeometry x="430" y="270" width="60" height="60" as="geometry" />
        </mxCell>
        <mxCell id="xtNYb5jNxqwyDTvApmOd-5" value="" style="shape=doubleArrow;whiteSpace=wrap;html=1;direction=south;" vertex="1" parent="1">
          <mxGeometry x="595" y="270" width="60" height="60" as="geometry" />
        </mxCell>
      </root>
    </mxGraphModel>
  </diagram>
</mxfile>
